<svg width="25" height="25" viewBox="0 0 25 25" fill="none" xmlns="http://www.w3.org/2000/svg">
<path d="M12.5 0C19.4036 0 25 5.59644 25 12.5C25 12.528 24.9982 12.556 24.998 12.584C24.9759 7.70134 21.0128 3.75 16.125 3.75C11.2235 3.75 7.25 7.72348 7.25 12.625C7.25 17.5265 11.2235 21.5 16.125 21.5C20.7202 21.5 24.4997 18.0076 24.9541 13.5322L24.9834 13.1436C24.6484 19.748 19.1877 25 12.5 25C5.59644 25 0 19.4036 0 12.5C0 5.59644 5.59644 0 12.5 0ZM24.9971 12.7363C24.996 12.7927 24.994 12.849 24.9922 12.9053C24.9939 12.8491 24.9964 12.7928 24.9971 12.7363ZM25 12.625C25 12.6622 24.9975 12.6993 24.9971 12.7363C24.998 12.6856 24.9977 12.6348 24.998 12.584C24.9981 12.5977 25 12.6113 25 12.625Z" fill="#828060"/>
<path d="M16.25 4.25L17.0162 9.45616L20.125 5.35529L18.3432 10.2718L22.9617 8.375L19.1094 11.6844L24 12.5L19.1094 13.3156L22.9617 16.625L18.3432 14.7282L20.125 19.6447L17.0162 15.5438L16.25 20.75L15.4838 15.5438L12.375 19.6447L14.1568 14.7282L9.5383 16.625L13.3906 13.3156L8.5 12.5L13.3906 11.6844L9.5383 8.375L14.1568 10.2718L12.375 5.35529L15.4838 9.45616L16.25 4.25Z" fill="#CD9433"/>
</svg>
